<mxfile host="app.diagrams.net" modified="2022-05-21T14:09:08.235Z" agent="5.0 (X11)" etag="wRZGNhQoSsFIbQKVfwr6" version="15.8.6" type="github">
  <diagram id="1n_pBzeDh9LxIQTw4yuW" name="Page-1">
    <mxGraphModel dx="1350" dy="793" grid="1" gridSize="10" guides="1" tooltips="1" connect="1" arrows="1" fold="1" page="1" pageScale="1" pageWidth="850" pageHeight="1100" math="0" shadow="0">
      <root>
        <mxCell id="0" />
        <mxCell id="1" parent="0" />
        <mxCell id="CQxPOnlC6T6cqwi_Hm7u-1" style="edgeStyle=orthogonalEdgeStyle;rounded=0;orthogonalLoop=1;jettySize=auto;html=1;entryX=0;entryY=0.5;entryDx=0;entryDy=0;" parent="1" source="y6l8WnOhIsjmGGmAFcqj-1" target="CQxPOnlC6T6cqwi_Hm7u-16" edge="1">
          <mxGeometry relative="1" as="geometry">
            <mxPoint x="376" y="415" as="sourcePoint" />
          </mxGeometry>
        </mxCell>
        <mxCell id="CQxPOnlC6T6cqwi_Hm7u-8" style="edgeStyle=orthogonalEdgeStyle;rounded=0;orthogonalLoop=1;jettySize=auto;html=1;startArrow=none;entryX=0;entryY=0.5;entryDx=0;entryDy=0;" parent="1" source="CQxPOnlC6T6cqwi_Hm7u-22" target="y6l8WnOhIsjmGGmAFcqj-1" edge="1">
          <mxGeometry relative="1" as="geometry">
            <mxPoint x="260" y="415" as="targetPoint" />
          </mxGeometry>
        </mxCell>
        <mxCell id="CQxPOnlC6T6cqwi_Hm7u-9" value="&lt;div&gt;Reference&lt;/div&gt;&lt;div&gt;input r&lt;br&gt;&lt;/div&gt;" style="shape=note;whiteSpace=wrap;html=1;backgroundOutline=1;darkOpacity=0.05;fillColor=#FFE599;strokeColor=#FFFFFF;" parent="1" vertex="1">
          <mxGeometry x="80" y="377.5" width="74" height="75" as="geometry" />
        </mxCell>
        <mxCell id="CQxPOnlC6T6cqwi_Hm7u-11" value="&lt;div&gt;control &lt;br&gt;&lt;/div&gt;&lt;div&gt;u&lt;br&gt;&lt;/div&gt;" style="text;html=1;strokeColor=none;fillColor=none;align=center;verticalAlign=middle;whiteSpace=wrap;rounded=0;" parent="1" vertex="1">
          <mxGeometry x="396" y="387.5" width="40" height="20" as="geometry" />
        </mxCell>
        <mxCell id="CQxPOnlC6T6cqwi_Hm7u-16" value="&lt;i&gt;&lt;b&gt;&lt;font style=&quot;font-size: 24px&quot;&gt;f&lt;/font&gt;&lt;/b&gt;&lt;/i&gt;" style="rounded=0;whiteSpace=wrap;html=1;fillColor=#B9E0A5;" parent="1" vertex="1">
          <mxGeometry x="474" y="390" width="56" height="50" as="geometry" />
        </mxCell>
        <mxCell id="CQxPOnlC6T6cqwi_Hm7u-17" style="edgeStyle=orthogonalEdgeStyle;rounded=0;orthogonalLoop=1;jettySize=auto;html=1;exitX=1;exitY=0.5;exitDx=0;exitDy=0;" parent="1" source="CQxPOnlC6T6cqwi_Hm7u-16" edge="1">
          <mxGeometry relative="1" as="geometry">
            <mxPoint x="631" y="415" as="targetPoint" />
            <mxPoint x="576" y="414.5" as="sourcePoint" />
            <Array as="points" />
          </mxGeometry>
        </mxCell>
        <mxCell id="CQxPOnlC6T6cqwi_Hm7u-18" value="&lt;div&gt;Output&lt;/div&gt;&lt;div&gt;y&lt;br&gt;&lt;/div&gt;" style="shape=note;whiteSpace=wrap;html=1;backgroundOutline=1;darkOpacity=0.05;fillColor=#FFE599;strokeColor=#FFFFFF;" parent="1" vertex="1">
          <mxGeometry x="630" y="377.5" width="74" height="75" as="geometry" />
        </mxCell>
        <mxCell id="CQxPOnlC6T6cqwi_Hm7u-21" value="" style="edgeStyle=elbowEdgeStyle;elbow=vertical;endArrow=classic;html=1;rounded=0;fontSize=14;" parent="1" target="CQxPOnlC6T6cqwi_Hm7u-22" edge="1">
          <mxGeometry width="50" height="50" relative="1" as="geometry">
            <mxPoint x="600" y="415" as="sourcePoint" />
            <mxPoint x="220" y="430" as="targetPoint" />
            <Array as="points">
              <mxPoint x="380" y="480" />
              <mxPoint x="630" y="500" />
            </Array>
          </mxGeometry>
        </mxCell>
        <mxCell id="CQxPOnlC6T6cqwi_Hm7u-22" value="" style="ellipse;whiteSpace=wrap;html=1;aspect=fixed;fontSize=14;" parent="1" vertex="1">
          <mxGeometry x="180" y="400" width="30" height="30" as="geometry" />
        </mxCell>
        <mxCell id="CQxPOnlC6T6cqwi_Hm7u-23" value="" style="edgeStyle=orthogonalEdgeStyle;rounded=0;orthogonalLoop=1;jettySize=auto;html=1;endArrow=none;" parent="1" source="CQxPOnlC6T6cqwi_Hm7u-9" target="CQxPOnlC6T6cqwi_Hm7u-22" edge="1">
          <mxGeometry relative="1" as="geometry">
            <mxPoint x="184" y="415" as="sourcePoint" />
            <mxPoint x="260" y="415" as="targetPoint" />
          </mxGeometry>
        </mxCell>
        <mxCell id="CQxPOnlC6T6cqwi_Hm7u-24" value="&lt;div&gt;error&lt;/div&gt;&lt;div&gt;e&lt;br&gt;&lt;/div&gt;" style="text;html=1;align=center;verticalAlign=middle;resizable=0;points=[];autosize=1;strokeColor=none;fillColor=none;fontSize=14;" parent="1" vertex="1">
          <mxGeometry x="210" y="370" width="40" height="40" as="geometry" />
        </mxCell>
        <mxCell id="CQxPOnlC6T6cqwi_Hm7u-25" value="-" style="text;html=1;align=center;verticalAlign=middle;resizable=0;points=[];autosize=1;strokeColor=none;fillColor=none;fontSize=14;" parent="1" vertex="1">
          <mxGeometry x="200" y="430" width="20" height="20" as="geometry" />
        </mxCell>
        <mxCell id="CQxPOnlC6T6cqwi_Hm7u-26" value="+" style="text;html=1;align=center;verticalAlign=middle;resizable=0;points=[];autosize=1;strokeColor=none;fillColor=none;fontSize=14;" parent="1" vertex="1">
          <mxGeometry x="160" y="390" width="20" height="20" as="geometry" />
        </mxCell>
        <mxCell id="y6l8WnOhIsjmGGmAFcqj-1" value="" style="triangle;whiteSpace=wrap;html=1;fillColor=#97D077;" parent="1" vertex="1">
          <mxGeometry x="290" y="375" width="60" height="80" as="geometry" />
        </mxCell>
        <mxCell id="y6l8WnOhIsjmGGmAFcqj-3" value="Controller" style="text;html=1;align=center;verticalAlign=middle;resizable=0;points=[];autosize=1;strokeColor=none;fillColor=none;fontSize=18;" parent="1" vertex="1">
          <mxGeometry x="300" y="440" width="90" height="30" as="geometry" />
        </mxCell>
        <mxCell id="RbFsnYcMFbBS4FWU-XmQ-1" value="&lt;font style=&quot;font-size: 18px&quot;&gt;function&lt;/font&gt;" style="text;html=1;align=center;verticalAlign=middle;resizable=0;points=[];autosize=1;strokeColor=none;fillColor=none;fontSize=24;" parent="1" vertex="1">
          <mxGeometry x="470" y="435" width="80" height="40" as="geometry" />
        </mxCell>
        <mxCell id="RbFsnYcMFbBS4FWU-XmQ-2" value="&lt;b&gt;K&lt;/b&gt;" style="text;html=1;align=center;verticalAlign=middle;resizable=0;points=[];autosize=1;strokeColor=none;fillColor=none;fontSize=18;" parent="1" vertex="1">
          <mxGeometry x="290" y="400" width="30" height="30" as="geometry" />
        </mxCell>
      </root>
    </mxGraphModel>
  </diagram>
</mxfile>
